<svg width="39" height="34" viewBox="0 0 39 34" fill="none" xmlns="http://www.w3.org/2000/svg">
<g clip-path="url(#clip0_81_83)">
<path d="M39 26.431C39 30.6114 35.1131 34 30.3182 34H8.68184C3.88688 34 9.53674e-07 30.6114 9.53674e-07 26.431V7.56878C9.53674e-07 3.38856 3.88688 0 8.68184 0H30.3182C35.1131 0 39 3.38856 39 7.56878V26.431Z" fill="url(#paint0_linear_81_83)"/>
<path d="M21.0182 26.9548C14.3912 26.9548 9 22.2547 9 16.4774C9 10.7 14.3912 6 21.0182 6C24.854 6 28.4909 7.6173 30.7481 10.3262C30.8474 10.452 30.8864 10.6066 30.8568 10.7571C30.8272 10.9076 30.7313 11.0421 30.5896 11.1318C30.4479 11.2215 30.2716 11.2594 30.0983 11.2374C29.9249 11.2154 29.7683 11.1353 29.6618 11.0141C27.6567 8.60722 24.4255 7.17014 21.0182 7.17014C15.1315 7.17014 10.3425 11.3452 10.3425 16.4771C10.3425 21.6089 15.1315 25.7842 21.0182 25.7842C24.4185 25.7842 27.6457 24.3522 29.6519 21.9531C29.7587 21.8323 29.9153 21.7526 30.0885 21.731C30.2617 21.7093 30.4377 21.7475 30.5791 21.8374C30.7205 21.9272 30.816 22.0617 30.8454 22.212C30.8748 22.3624 30.8356 22.5168 30.7363 22.6424C28.479 25.3429 24.8459 26.9548 21.0182 26.9548ZM18.8308 11.9927C18.7276 11.9264 18.6093 11.8678 18.5122 11.8678C18.394 11.8679 18.2806 11.9089 18.197 11.9818C18.1133 12.0547 18.0663 12.1535 18.0663 12.2566V20.5578C18.0665 20.627 18.0878 20.6949 18.1282 20.7545C18.1686 20.8141 18.2265 20.8633 18.2959 20.8969C18.3653 20.9305 18.4437 20.9473 18.5231 20.9457C18.6025 20.944 18.6799 20.924 18.7474 20.8875C18.831 20.8416 26.897 16.8315 26.9752 16.772C27.0693 16.7007 27.1287 16.5957 27.1287 16.4786C27.1287 16.3778 27.0849 16.2861 27.0129 16.217C26.9312 16.139 18.9655 12.0792 18.8308 11.9927Z" fill="white"/>
</g>
<defs>
<linearGradient id="paint0_linear_81_83" x1="19.5" y1="0" x2="19.5" y2="34" gradientUnits="userSpaceOnUse">
<stop stop-color="#0BD319"/>
<stop offset="0.22" stop-color="#18D722"/>
<stop offset="1" stop-color="#86FC6F"/>
</linearGradient>
<clipPath id="clip0_81_83">
<rect width="39" height="34" fill="white"/>
</clipPath>
</defs>
</svg>
