<svg width="41" height="43" viewBox="0 0 41 43" fill="none" xmlns="http://www.w3.org/2000/svg">
<g clip-path="url(#clip0_81_73)">
<path d="M33.4819 23.0128V22.096H41V23.9297H33.4819V23.0128ZM33.4819 20.0789V19.1621H41V20.9958H33.4819V20.0789ZM33.4819 17.145V16.2282H41V18.0619H33.4819V17.145ZM33.4819 14.1194V13.2026H41V15.128H33.4819V14.1194ZM33.4819 11.2772V10.2687H41V12.2857H33.4819V11.2772Z" fill="#B1E3FA"/>
<path d="M16.6972 23.0127V22.0959H24.2154V23.9296H16.6972V23.0127ZM16.6972 20.0788V19.162H24.2154V20.9957H16.6972V20.0788ZM16.6972 17.1449V16.2281H24.2154V18.0618H16.6972V17.1449ZM16.6972 14.1194V13.2025H24.2154V15.1279H16.6972V14.1194Z" fill="#F7BACF"/>
<path d="M25.0896 23.0127V22.0959H32.6077V23.9296H25.0896V23.0127ZM25.0896 20.0788V19.162H32.6077V20.9957H25.0896V20.0788Z" fill="#E7EE9F"/>
<path d="M8.39233 31.8144V30.8976H15.7356V32.7313H8.39233V31.8144ZM8.39233 28.7889V27.872H15.7356V29.7057H8.39233V28.7889ZM8.39233 25.855V24.9381H15.7356V26.7718H8.39233V25.855Z" fill="#FEEA3A"/>
<path d="M0 23.0127V22.0959H7.34328V23.9296H0V23.0127ZM0 20.0788V19.162H7.34328V20.9957H0V20.0788Z" fill="#FE9D7F"/>
<path d="M33.5693 31.8144V30.8976H40.9126V32.7313H33.5693V31.8144ZM33.5693 28.7889V27.872H40.9126V29.7057H33.5693V28.7889ZM33.5693 25.855V24.9381H40.9126V26.7718H33.5693V25.855Z" fill="#4EC2F6"/>
<path d="M25.177 31.8144V30.8976H32.5203V32.7313H25.177V31.8144ZM25.177 28.7889V27.872H32.5203V29.7057H25.177V28.7889ZM25.177 25.855V24.9381H32.5203V26.7718H25.177V25.855Z" fill="#CCDB38"/>
<path d="M16.7846 31.8144V30.8976H24.1279V32.7313H16.7846V31.8144ZM16.7846 28.7889V27.872H24.1279V29.7057H16.7846V28.7889ZM16.7846 25.855V24.9381H24.1279V26.7718H16.7846V25.855Z" fill="#FE3F80"/>
<path d="M0 31.8144V30.8976H7.34328V32.7313H0V31.8144ZM0 28.7889V27.872H7.34328V29.7057H0V28.7889ZM0 25.855V24.9381H7.34328V26.7718H0V25.855Z" fill="#FE3D02"/>
</g>
<defs>
<clipPath id="clip0_81_73">
<rect width="41" height="43" fill="white"/>
</clipPath>
</defs>
</svg>
