<svg width="33" height="30" viewBox="0 0 33 30" fill="none" xmlns="http://www.w3.org/2000/svg">
<g clip-path="url(#clip0_81_88)">
<path d="M16.5 30C25.6127 30 33 23.2843 33 15C33 6.71573 25.6127 0 16.5 0C7.3873 0 0 6.71573 0 15C0 23.2843 7.3873 30 16.5 30Z" fill="#3C5A9A"/>
<path d="M22.1069 4.89795H18.4517C16.2826 4.89795 13.87 5.7273 13.87 8.58566C13.8806 9.58162 13.87 10.5355 13.87 11.6089H11.3607V15.239H13.9477V25.6895H18.7014V15.1701H21.839L22.1229 11.5987H18.6195C18.6195 11.5987 18.6273 10.0101 18.6195 9.54871C18.6195 8.41915 19.9124 8.48384 19.9901 8.48384C20.6054 8.48384 21.8016 8.48547 22.1087 8.48384V4.89795H22.1069Z" fill="white"/>
</g>
<defs>
<clipPath id="clip0_81_88">
<rect width="33" height="30" fill="white"/>
</clipPath>
</defs>
</svg>
