<svg width="22" height="22" viewBox="0 0 22 22" fill="none" xmlns="http://www.w3.org/2000/svg">
<path d="M19.54 9.4L17.8 7.6612V3.4C17.8 2.74 17.26 2.2 16.6 2.2H15.4C14.74 2.2 14.2 2.74 14.2 3.4V4.0636L11.8 1.666C11.4724 1.3564 11.1724 1 10.6 1C10.0276 1 9.7276 1.3564 9.4 1.666L1.66 9.4C1.2856 9.79 1 10.0744 1 10.6C1 11.2756 1.5184 11.8 2.2 11.8H3.4V19C3.4 19.66 3.94 20.2 4.6 20.2H7C7.66274 20.2 8.2 19.6627 8.2 19V14.2C8.2 13.54 8.74 13 9.4 13H11.8C12.46 13 13 13.54 13 14.2V19C13 19.6627 12.9373 20.2 13.6 20.2H16.6C17.26 20.2 17.8 19.66 17.8 19V11.8H19C19.6816 11.8 20.2 11.2756 20.2 10.6C20.2 10.0744 19.9144 9.79 19.54 9.4Z" stroke="#1A1A1A" stroke-width="2" stroke-linejoin="round"/>
</svg>
