<svg width="35" height="28" viewBox="0 0 35 28" fill="none" xmlns="http://www.w3.org/2000/svg">
<g clip-path="url(#clip0_81_95)">
<path d="M8.87509 27.901C6.79362 27.8252 5.66291 27.5481 4.91084 27.3135C3.91432 27.0031 3.20385 26.6336 2.45594 26.0361C1.70803 25.4386 1.24513 24.8702 0.859215 24.073C0.565875 23.4713 0.219485 22.5668 0.124825 20.9016C0.0208042 19.1016 0 18.5615 0 14.0012C0 9.44096 0.0228847 8.90172 0.123785 7.10007C0.218444 5.4349 0.566915 4.53199 0.858175 3.92867C1.24617 3.13145 1.70907 2.56308 2.4549 1.96392C3.20177 1.36642 3.91224 0.995274 4.9098 0.68654C5.66187 0.451868 6.79258 0.174756 8.87405 0.0990281C11.1251 0.0166434 11.8012 0 17.4995 0C23.1998 0 23.8739 0.0183077 26.126 0.0990281C28.2074 0.174756 29.336 0.453532 30.0902 0.68654C31.0867 0.995274 31.7972 1.36642 32.5451 1.96392C33.293 2.56142 33.7538 3.13062 34.1418 3.92784C34.4352 4.5295 34.7816 5.43407 34.8762 7.09924C34.9792 8.90088 35 9.44013 35 14.0004C35 18.559 34.9792 19.0999 34.8762 20.9016C34.7816 22.5668 34.4331 23.4713 34.1418 24.073C33.7538 24.8702 33.292 25.4386 32.5451 26.0361C31.7982 26.6336 31.0867 27.0031 30.0902 27.3135C29.3381 27.5481 28.2074 27.8252 26.126 27.901C23.876 27.9834 23.1998 28 17.4995 28C11.8012 28 11.1251 27.9842 8.87509 27.901Z" fill="url(#paint0_radial_81_95)"/>
<path d="M8.87509 27.901C6.79362 27.8252 5.66291 27.5481 4.91084 27.3135C3.91432 27.0031 3.20385 26.6336 2.45594 26.0361C1.70803 25.4386 1.24513 24.8702 0.859215 24.073C0.565875 23.4713 0.219485 22.5668 0.124825 20.9016C0.0208042 19.1016 0 18.5615 0 14.0012C0 9.44096 0.0228847 8.90172 0.123785 7.10007C0.218444 5.4349 0.566915 4.53199 0.858175 3.92867C1.24617 3.13145 1.70907 2.56308 2.4549 1.96392C3.20177 1.36642 3.91224 0.995274 4.9098 0.68654C5.66187 0.451868 6.79258 0.174756 8.87405 0.0990281C11.1251 0.0166434 11.8012 0 17.4995 0C23.1998 0 23.8739 0.0183077 26.126 0.0990281C28.2074 0.174756 29.336 0.453532 30.0902 0.68654C31.0867 0.995274 31.7972 1.36642 32.5451 1.96392C33.293 2.56142 33.7538 3.13062 34.1418 3.92784C34.4352 4.5295 34.7816 5.43407 34.8762 7.09924C34.9792 8.90088 35 9.44013 35 14.0004C35 18.559 34.9792 19.0999 34.8762 20.9016C34.7816 22.5668 34.4331 23.4713 34.1418 24.073C33.7538 24.8702 33.292 25.4386 32.5451 26.0361C31.7982 26.6336 31.0867 27.0031 30.0902 27.3135C29.3381 27.5481 28.2074 27.8252 26.126 27.901C23.876 27.9834 23.1998 28 17.4995 28C11.8012 28 11.1251 27.9842 8.87509 27.901Z" fill="url(#paint1_radial_81_95)"/>
<path d="M13.2029 14.0597C13.2029 12.1448 15.1428 10.5921 17.5365 10.5921C19.9301 10.5921 21.871 12.1448 21.871 14.0597C21.871 15.9746 19.9301 17.5274 17.5365 17.5274C15.1428 17.5274 13.2029 15.9746 13.2029 14.0597ZM10.8598 14.0597C10.8598 17.0097 13.8489 19.4011 17.5365 19.4011C21.224 19.4011 24.2132 17.0097 24.2132 14.0597C24.2132 11.1097 21.224 8.71835 17.5365 8.71835C13.8489 8.71835 10.8599 11.1095 10.8599 14.0597M22.9173 8.50656C22.9171 8.75344 23.0085 8.99481 23.1799 9.20014C23.3512 9.40547 23.5948 9.56554 23.8799 9.6601C24.165 9.75467 24.4787 9.77949 24.7814 9.73143C25.0841 9.68336 25.3622 9.56456 25.5805 9.39006C25.7988 9.21556 25.9475 8.99319 26.0078 8.75107C26.0681 8.50895 26.0373 8.25796 25.9194 8.02983C25.8014 7.80171 25.6015 7.60669 25.345 7.46945C25.0884 7.33221 24.7868 7.2589 24.4782 7.25881H24.4776C24.0639 7.25896 23.6673 7.39045 23.3747 7.6244C23.0821 7.85836 22.9176 8.17564 22.9173 8.50656ZM12.2834 22.5269C11.0157 22.4807 10.3266 22.3118 9.86875 22.169C9.26168 21.98 8.82854 21.7548 8.37313 21.391C7.91773 21.0271 7.63583 20.6809 7.40053 20.1953C7.22203 19.8291 7.01087 19.2777 6.95324 18.2636C6.8902 17.1671 6.87762 16.8377 6.87762 14.0599C6.87762 11.282 6.89124 10.9536 6.95324 9.85617C7.01097 8.84201 7.2237 8.29169 7.40053 7.92446C7.63687 7.4388 7.91835 7.09229 8.37313 6.72796C8.82791 6.36364 9.26064 6.13812 9.86875 5.94989C10.3264 5.80709 11.0157 5.63816 12.2834 5.59205C13.654 5.54162 14.0657 5.53156 17.5365 5.53156C21.0072 5.53156 21.4194 5.54229 22.7911 5.59222C24.0588 5.63841 24.7467 5.80858 25.2057 5.95005C25.8128 6.13829 26.2459 6.36431 26.7013 6.72813C27.1567 7.09196 27.4376 7.43897 27.6739 7.92462C27.8524 8.29078 28.0636 8.84217 28.1212 9.85634C28.1843 10.9537 28.1969 11.2822 28.1969 14.06C28.1969 16.8379 28.1843 17.1664 28.1212 18.2637C28.0635 19.2779 27.8513 19.8291 27.6739 20.1955C27.4376 20.6811 27.1561 21.0276 26.7013 21.3911C26.2466 21.7546 25.8128 21.9801 25.2057 22.1692C24.748 22.312 24.0588 22.4809 22.7911 22.527C21.4205 22.5775 21.0088 22.5875 17.5365 22.5875C14.0641 22.5875 13.6536 22.5775 12.2834 22.527M12.1757 3.72059C10.7915 3.77102 9.84565 3.94661 9.01962 4.20375C8.16467 4.46929 7.43996 4.82554 6.71628 5.40357C5.99261 5.98159 5.54844 6.56145 5.2165 7.24624C4.89508 7.90748 4.67559 8.66376 4.61256 9.77112C4.54848 10.8802 4.53381 11.2348 4.53381 14.0597C4.53381 16.8846 4.54848 17.2392 4.61256 18.3483C4.67559 19.4557 4.89508 20.2119 5.2165 20.8732C5.54844 21.5571 5.99271 22.1381 6.71628 22.7159C7.43985 23.2936 8.16363 23.6494 9.01962 23.9157C9.84721 24.1728 10.7915 24.3484 12.1757 24.3988C13.5629 24.4493 14.0054 24.4618 17.5365 24.4618C21.0676 24.4618 21.5108 24.4501 22.8972 24.3988C24.2815 24.3484 25.2267 24.1728 26.0533 23.9157C26.9082 23.6494 27.633 23.2939 28.3566 22.7159C29.0803 22.1378 29.5235 21.5571 29.8564 20.8732C30.1778 20.2119 30.3984 19.4557 30.4604 18.3483C30.5234 17.2383 30.5381 16.8846 30.5381 14.0597C30.5381 11.2348 30.5234 10.8802 30.4604 9.77112C30.3973 8.66367 30.1778 7.90707 29.8564 7.24624C29.5235 6.56228 29.0792 5.98251 28.3566 5.40357C27.6341 4.82463 26.9082 4.46929 26.0543 4.20375C25.2267 3.94661 24.2814 3.77019 22.8982 3.72059C21.5116 3.66991 21.0686 3.65759 17.538 3.65759C14.0074 3.65759 13.5634 3.66933 12.1762 3.72059" fill="white"/>
</g>
<defs>
<radialGradient id="paint0_radial_81_95" cx="0" cy="0" r="1" gradientUnits="userSpaceOnUse" gradientTransform="translate(2.26516 27.3866) scale(44.437 35.5496)">
<stop offset="0.09" stop-color="#FA8F21"/>
<stop offset="0.78" stop-color="#D82D7E"/>
</radialGradient>
<radialGradient id="paint1_radial_81_95" cx="0" cy="0" r="1" gradientUnits="userSpaceOnUse" gradientTransform="translate(24.2433 26.4875) scale(39.105 31.284)">
<stop offset="0.64" stop-color="#8C3AAA" stop-opacity="0"/>
<stop offset="1" stop-color="#8C3AAA"/>
</radialGradient>
<clipPath id="clip0_81_95">
<rect width="35" height="28" fill="white"/>
</clipPath>
</defs>
</svg>
