<svg width="37" height="37" viewBox="0 0 37 37" fill="none" xmlns="http://www.w3.org/2000/svg">
<path d="M34.6875 18.5C34.6875 9.55989 27.4401 2.3125 18.5 2.3125C9.55989 2.3125 2.3125 9.55989 2.3125 18.5C2.3125 27.4401 9.55989 34.6875 18.5 34.6875C27.4401 34.6875 34.6875 27.4401 34.6875 18.5Z" fill="#1275B1"/>
<path d="M14.5903 11.2065C14.5903 12.2871 13.6536 13.1631 12.4983 13.1631C11.3429 13.1631 10.4062 12.2871 10.4062 11.2065C10.4062 10.126 11.3429 9.25 12.4983 9.25C13.6536 9.25 14.5903 10.126 14.5903 11.2065Z" fill="white"/>
<path d="M10.6924 14.6013H14.2684V25.4376H10.6924V14.6013Z" fill="white"/>
<path d="M20.0258 14.6012H16.4497V25.4374H20.0258C20.0258 25.4374 20.0258 22.026 20.0258 19.8931C20.0258 18.6128 20.4629 17.3269 22.2071 17.3269C24.1783 17.3269 24.1665 19.0023 24.1573 20.3003C24.1452 21.9969 24.1739 23.7284 24.1739 25.4374H27.75V19.7183C27.7197 16.0665 26.7681 14.3838 23.6375 14.3838C21.7784 14.3838 20.626 15.2279 20.0258 15.9914V14.6012Z" fill="white"/>
</svg>
