<?xml version="1.0" standalone="no"?>
<!DOCTYPE svg PUBLIC "-//W3C//DTD SVG 20010904//EN"
 "http://www.w3.org/TR/2001/REC-SVG-20010904/DTD/svg10.dtd">
<svg version="1.0" xmlns="http://www.w3.org/2000/svg"
 width="500.000000pt" height="500.000000pt" viewBox="0 0 500.000000 500.000000"
 preserveAspectRatio="xMidYMid meet">

<g transform="translate(0.000000,500.000000) scale(0.100000,-0.100000)"
fill="#000000" stroke="none">
<path d="M3440 2379 c-14 -6 -34 -19 -45 -29 -48 -45 -154 -62 -228 -35 -36
12 -41 12 -74 -11 -43 -29 -89 -38 -158 -31 l-53 5 5 -38 c10 -70 -14 -136
-68 -190 l-48 -48 57 1 c105 1 189 -57 227 -157 20 -51 29 -54 100 -35 58 16
129 64 159 108 15 21 38 67 52 104 27 70 81 130 133 148 23 8 26 15 26 52 0
23 4 63 8 88 12 70 -23 96 -93 68z"/>
<path d="M2660 1970 c0 -13 30 -13 50 0 11 7 7 10 -17 10 -18 0 -33 -4 -33
-10z"/>
</g>
</svg>
