<svg width="41" height="37" viewBox="0 0 41 37" fill="none" xmlns="http://www.w3.org/2000/svg">
<g clip-path="url(#clip0_74_58)">
<path fill-rule="evenodd" clip-rule="evenodd" d="M32.595 16.465C26.035 12.95 15.0675 12.58 8.81501 14.3375C7.79001 14.615 6.765 14.06 6.4575 13.2275C6.15 12.3025 6.765 11.3775 7.6875 11.1C14.965 9.1575 26.9575 9.52751 34.5425 13.5975C35.465 14.06 35.7725 15.17 35.26 16.0025C34.7475 16.65 33.5175 16.9275 32.595 16.465ZM32.39 21.645C31.8775 22.2925 30.955 22.57 30.2375 22.1075C24.7025 19.055 16.2975 18.13 9.84 19.98C9.02 20.165 8.0975 19.795 7.8925 19.055C7.6875 18.315 8.0975 17.4825 8.9175 17.2975C16.4 15.2625 25.625 16.28 31.98 19.795C32.595 20.0725 32.9025 20.9975 32.39 21.645ZM29.93 26.7325C29.52 27.2875 28.8025 27.4725 28.1875 27.1025C23.37 24.42 17.3225 23.865 10.1475 25.345C9.43 25.53 8.815 25.0675 8.61 24.5125C8.405 23.865 8.9175 23.31 9.5325 23.125C17.3225 21.5525 24.0875 22.2 29.4175 25.16C30.135 25.4375 30.2375 26.1775 29.93 26.7325ZM20.5 0C9.225 0 0 8.325 0 18.5C0 28.675 9.225 37 20.5 37C31.775 37 41 28.675 41 18.5C41 8.325 31.8775 0 20.5 0Z" fill="#00DA5A"/>
</g>
<defs>
<clipPath id="clip0_74_58">
<rect width="41" height="37" fill="white"/>
</clipPath>
</defs>
</svg>
