<svg width="66" height="68" viewBox="0 0 66 68" fill="none" xmlns="http://www.w3.org/2000/svg">
<g clip-path="url(#clip0_89_168)">
<path d="M21.3607 32.6104V30.7333H19.5332V27.7179H16.9318V30.733H15.5267V32.6101H16.9318V36.7836C16.9318 39.3335 18.5221 40.7687 21.3607 40.7897V38.5658C20.1572 38.5407 19.5332 37.7903 19.5332 36.3763V32.6104H21.3607ZM56.2506 30.732V40.4494H54.7003V30.732H56.2506ZM59.6502 30.732V32.2735H59.6872C60.332 31.0954 61.3527 30.5062 62.7522 30.5062C63.3722 30.5062 63.8897 30.5943 64.3028 30.77C64.716 30.9451 65.0509 31.1899 65.307 31.5027C65.5614 31.8162 65.7416 32.1892 65.8449 32.621C65.9482 33.0535 66 33.5325 66 34.0588V40.4494H64.4493V33.8708C64.4493 33.2687 64.2787 32.7934 63.9392 32.4425C63.5986 32.092 63.1294 31.9162 62.534 31.9162C62.0598 31.9162 61.6493 31.9913 61.3022 32.1416C60.956 32.2929 60.6673 32.5054 60.4366 32.7808C60.2009 33.0637 60.0237 33.3932 59.9159 33.7491C59.7997 34.1187 59.7426 34.5229 59.7426 34.9612V40.4494H58.1923V30.732H59.6502ZM29.2156 40.4494V39.0966H29.1602C28.8325 39.6603 28.4068 40.0676 27.8834 40.3182C27.3604 40.5687 26.8251 40.6942 26.277 40.6942C25.5843 40.6942 25.0161 40.5997 24.5725 40.4117C24.1277 40.2233 23.7782 39.9578 23.5232 39.6127C23.2674 39.2683 23.0882 38.849 22.9843 38.3537C22.8813 37.8583 22.8298 37.3109 22.8298 36.7084V30.7313H25.42V36.2202C25.42 37.0216 25.5414 37.6206 25.7846 38.0147C26.0278 38.4098 26.4595 38.6073 27.0795 38.6073C27.7854 38.6073 28.2962 38.3911 28.612 37.9586C28.9292 37.5268 29.0872 36.8162 29.0872 35.8261V30.732H31.678V40.4494H29.2156ZM35.8667 30.732V32.0855H35.9215C36.2488 31.5214 36.6755 31.1107 37.1976 30.8544C37.7209 30.5977 38.2572 30.4692 38.8037 30.4692C39.4966 30.4692 40.0659 30.5664 40.5104 30.7598C40.9539 30.9543 41.3034 31.2236 41.5591 31.5684C41.8142 31.9131 41.9934 32.333 42.0974 32.828C42.2003 33.3231 42.2528 33.8712 42.2528 34.4723V40.4494H39.6623V34.9612C39.6623 34.1595 39.5392 33.5611 39.2967 33.1657C39.0528 32.7713 38.6212 32.5741 38.0018 32.5741C37.2962 32.5741 36.7851 32.7903 36.4686 33.2224C36.1528 33.6553 35.9944 34.3665 35.9944 35.3563V40.4494H33.4036V30.732H35.8667ZM46.75 38.1191C47.1394 38.5077 47.6987 38.7018 48.4283 38.7018C48.9507 38.7018 49.4018 38.5672 49.7787 38.2979C50.1559 38.0283 50.3879 37.7434 50.4717 37.4425H52.7526C52.3883 38.6076 51.8276 39.4417 51.0743 39.9421C50.3202 40.4433 49.4081 40.6945 48.3389 40.6945C47.5958 40.6945 46.9275 40.5715 46.3312 40.3277C45.7349 40.0832 45.2297 39.7354 44.8172 39.2846C44.404 38.8334 44.0839 38.2949 43.8595 37.6682C43.6345 37.0416 43.5216 36.3521 43.5216 35.6004C43.5216 34.8735 43.6381 34.1976 43.8681 33.5703C44.0994 32.9436 44.4275 32.4017 44.8541 31.9441C45.2795 31.4868 45.7877 31.1267 46.3774 30.8632C46.9674 30.6004 47.6212 30.4692 48.3389 30.4692C49.1415 30.4692 49.8411 30.6289 50.4364 30.9479C51.0317 31.2675 51.5214 31.6969 51.9049 32.2361C52.288 32.7753 52.5652 33.3887 52.7358 34.0782C52.9061 34.7667 52.9658 35.4875 52.9183 36.2392H46.1134C46.1477 37.1038 46.3599 37.7305 46.75 38.1191ZM49.6777 33.0059C49.3682 32.6553 48.8966 32.4796 48.2647 32.4796C47.8505 32.4796 47.507 32.553 47.2331 32.6961C46.9589 32.8406 46.7411 33.0188 46.5774 33.2316C46.4124 33.4448 46.2969 33.6706 46.2292 33.9082C46.1629 34.1466 46.123 34.3594 46.1114 34.5477H50.3258C50.2041 33.8708 49.9886 33.3574 49.6777 33.0059ZM56.4766 27.7179C56.4765 27.9916 56.3709 28.254 56.183 28.4475C55.9952 28.6409 55.7404 28.7495 55.4748 28.7494C55.2091 28.7494 54.9544 28.6406 54.7667 28.447C54.5789 28.2534 54.4735 27.9909 54.4735 27.7172C54.4736 27.4435 54.5792 27.1811 54.7671 26.9877C54.955 26.7942 55.2098 26.6856 55.4754 26.6857C55.741 26.6858 55.9958 26.7946 56.1835 26.9881C56.3713 27.1817 56.4767 27.4442 56.4766 27.7179Z" fill="#2CB5A7"/>
<path d="M6.35211 31.7941C5.74962 31.7934 5.17201 31.5465 4.74596 31.1076C4.31991 30.6687 4.0802 30.0737 4.07942 29.4529C4.07832 29.1454 4.13651 28.8407 4.2506 28.5565C4.36468 28.2724 4.53241 28.0143 4.74403 27.7975C4.95461 27.5794 5.20507 27.4065 5.48092 27.2888C5.75678 27.1711 6.05254 27.1109 6.35112 27.1117C6.95366 27.1124 7.53132 27.3594 7.95738 27.7983C8.38344 28.2373 8.6231 28.8325 8.6238 29.4533C8.62337 30.0739 8.3839 30.669 7.95798 31.1079C7.53205 31.5468 6.95449 31.7936 6.35211 31.7941ZM0 32.7312C0 32.6084 0.096689 32.5088 0.216148 32.5088H6.33297C7.43648 32.5088 8.33407 33.4302 8.33407 34.5631V36.3936C8.33407 36.423 8.32845 36.452 8.31753 36.4792C8.30661 36.5063 8.29062 36.5309 8.27045 36.5517C8.25028 36.5724 8.22634 36.5889 8.2 36.6001C8.17366 36.6113 8.14543 36.617 8.11693 36.617C8.1133 36.617 8.10868 36.617 8.10439 36.6177L1.99351 36.6166C1.4649 36.6159 0.958147 36.3992 0.584424 36.014C0.210701 35.6289 0.000523868 35.1067 0 34.562L0 32.7312ZM10.9008 32.4792H12.6534C12.7722 32.4792 12.8692 32.5795 12.8692 32.7016V34.5335C12.8687 35.0781 12.6585 35.6002 12.2847 35.9852C11.911 36.3703 11.4043 36.5869 10.8757 36.5874L9.12771 36.5871C9.09892 36.5877 9.07029 36.5825 9.0435 36.5716C9.0167 36.5608 8.99228 36.5445 8.97166 36.5238C8.95104 36.5031 8.93464 36.4784 8.92341 36.451C8.91218 36.4237 8.90636 36.3944 8.90628 36.3647V34.5338C8.90689 33.989 9.11723 33.4668 9.49115 33.0816C9.86507 32.6964 10.372 32.4798 10.9008 32.4792ZM8.11726 37.2072H4.58662C4.52935 37.2074 4.47447 37.2309 4.43398 37.2726C4.39348 37.3144 4.37065 37.3709 4.37048 37.4299V41.093C4.37048 41.2178 4.46815 41.3147 4.59223 41.3147L6.3399 41.3151C6.86865 41.3145 7.37561 41.0979 7.74953 40.7127C8.12344 40.3275 8.33379 39.8052 8.3344 39.2605V37.4296C8.33396 37.3705 8.3109 37.314 8.27024 37.2724C8.22957 37.2307 8.17459 37.2073 8.11726 37.2072Z" fill="#2CB5A7"/>
</g>
<defs>
<clipPath id="clip0_89_168">
<rect width="66" height="68" fill="white"/>
</clipPath>
</defs>
</svg>
