<svg width="37" height="28" viewBox="0 0 37 28" fill="none" xmlns="http://www.w3.org/2000/svg">
<g clip-path="url(#clip0_81_99)">
<path d="M18.5 28C28.7173 28 37 21.732 37 14C37 6.26801 28.7173 0 18.5 0C8.28273 0 0 6.26801 0 14C0 21.732 8.28273 28 18.5 28Z" fill="#2DAAE1"/>
<path d="M30.7238 8.72616C29.8512 9.01919 28.914 9.21728 27.9286 9.30632C28.9343 8.85057 29.7047 8.12837 30.0685 7.26883C29.1132 7.69823 28.0676 8.00053 26.9773 8.16259C26.09 7.44686 24.8247 7 23.4249 7C20.7379 7 18.5588 8.64839 18.5588 10.6829C18.5588 10.9712 18.6017 11.2524 18.6842 11.5225C14.6394 11.3686 11.0534 9.9024 8.65313 7.67447C8.234 8.21859 7.9941 8.85123 7.9941 9.52623C7.9941 10.8038 8.85339 11.931 10.1591 12.5913C9.38613 12.5732 8.63015 12.4153 7.95434 12.1309V12.1774C7.95434 13.962 9.63165 15.4501 11.8582 15.7885C11.4492 15.8733 11.0199 15.9176 10.5759 15.9176C10.2619 15.9176 9.9573 15.8951 9.65973 15.8528C10.2791 17.3155 12.0764 18.3802 14.2055 18.4103C12.5398 19.3983 10.4411 19.9873 8.16157 19.9873C7.76896 19.9873 7.38093 19.9696 7 19.9349C9.1541 20.9801 11.7118 21.5903 14.4602 21.5903C23.4116 21.5903 28.3072 15.9783 28.3072 11.1116C28.3072 10.9518 28.3025 10.7932 28.2923 10.6352C29.2461 10.1131 30.0695 9.46668 30.7238 8.72616Z" fill="white"/>
</g>
<defs>
<clipPath id="clip0_81_99">
<rect width="37" height="28" fill="white"/>
</clipPath>
</defs>
</svg>
