<svg width="36" height="38" viewBox="0 0 36 38" fill="none" xmlns="http://www.w3.org/2000/svg">
<path d="M23.9804 18.6094C20.6796 16.7475 17.5191 15.0357 14.2885 13.2485V23.94C17.6881 21.9892 21.2714 20.2027 23.9944 18.6094H23.9804Z" fill="white"/>
<path d="M23.9804 18.6094C20.6796 16.7475 14.2885 13.2485 14.2885 13.2485L22.8096 19.294C22.8096 19.294 21.2574 20.2027 23.9804 18.6094Z" fill="#E8E0E0"/>
<path d="M14.9095 32.5661C8.05351 32.4329 5.71184 32.313 4.27251 32C3.2987 31.792 2.45247 31.3302 1.83199 30.6605C1.35243 30.1536 0.971058 29.3802 0.675177 28.3072C0.421374 27.4132 0.322524 26.6694 0.181596 24.8526C-0.0341369 20.7523 -0.0855655 17.4 0.181596 13.6542C0.402004 11.5858 0.508869 9.13021 1.97291 7.69763C2.66419 7.02716 3.46835 6.5957 4.37136 6.41733C5.78197 6.13462 11.7918 5.91113 18.0133 5.91113C24.2208 5.91113 30.2439 6.13462 31.6559 6.41733C32.784 6.64082 33.8419 7.31058 34.4631 8.17421C35.7989 10.3922 35.8223 13.1502 35.9579 15.3075C36.014 16.3354 36.014 22.1722 35.9579 23.2001C35.7468 26.6095 35.5771 27.8158 35.0976 29.0665C34.801 29.8561 34.5479 30.2727 34.1098 30.7345C33.4226 31.4451 32.5466 31.9178 31.5984 32.0895C25.6655 32.5605 20.6275 32.6627 14.9095 32.5661ZM23.995 18.8664C20.6942 17.0045 17.5337 15.2779 14.3031 13.4907V24.1829C17.7027 22.2321 21.2867 20.4449 24.0091 18.8516L23.995 18.8664Z" fill="#CD201F"/>
</svg>
